BEATLES - WITH THE BEATLES (MONO)

---------------------------------------------------------------------
THE BEATLES - with the beatles
---------------------------------------------------------------------

Artist...............: THE BEATLES
Album................: with the beatles
Genre................: Rock
Source...............: CD
Year.................: 1963
Ripper...............: Exact Audio Copy 0.9b4 & Asus CD-S520
Codec................: Free Lossless Audio Codec (FLAC)
Version..............: reference libFLAC 1.2.1 20070917
Quality..............: Lossless, (avg. compression: 48 %)
Channels.............: Stereo / 44100 HZ / 16 Bit
Tags.................: VorbisComment
Information..........:

Ripped by............: pags on 9/11/2009
Posted by............: pags on 9/11/2009
News Server..........:
News Group(s)........:

Included.............: NFO, SFV, M3U, LOG, CUE
Covers...............: Front Back CD

---------------------------------------------------------------------
Tracklisting
---------------------------------------------------------------------

1. (00:02:16) THE BEATLES - It Won't Be Long
2. (00:02:06) THE BEATLES - All I've Got To Do
3. (00:02:13) THE BEATLES - All My Loving
4. (00:02:31) THE BEATLES - Don't Bother Me
5. (00:01:50) THE BEATLES - Little Child
6. (00:02:19) THE BEATLES - Till There Was You
7. (00:02:39) THE BEATLES - Please Mister Postman
8. (00:02:49) THE BEATLES - Roll Over Beethoven
9. (00:02:35) THE BEATLES - Hold Me Tight
10. (00:03:04) THE BEATLES - You Really Got A Hold On Me
11. (00:02:01) THE BEATLES - I Wanna Be Your Man
12. (00:02:30) THE BEATLES - Devil In Her Heart
13. (00:02:12) THE BEATLES - Not A Second Time
14. (00:02:49) THE BEATLES - Money (That's What I Want)

Playing Time.........: 00:44:34
Total Size...........: 138.55 MB

NFO generated on.....: 9/11/2009 4:40:56 PM


:: Generated by Music
NFO Builder v1.20 - www.nfobuilder.com ::


Don't forget to thank all of the uploaders on the site who are donating
their time and bandwidth to bring you the finest quality rips in flac
format.


----------------------------------------------------------------


With The Beatles Cue Sheet (Mono) (2009 Remaster)





REM GENRE Rock
REM DATE 1963
REM DISCID D107F10E
REM COMMENT "ExactAudioCopy v0.99pb4"
PERFORMER "THE BEATLES"
TITLE "with the beatles"
FILE "(01) It Won't Be Long - THE BEATLES .wav" WAVE
  TRACK 01 AUDIO
    TITLE "It Won't Be Long"
    PERFORMER "THE BEATLES"
    INDEX 01 00:00:00
  TRACK 02 AUDIO
    TITLE "All I've Got To Do"
    PERFORMER "THE BEATLES"
    INDEX 00 02:11:39
FILE "(02) All I've Got To Do - THE BEATLES .wav" WAVE
    INDEX 01 00:00:00
  TRACK 03 AUDIO
    TITLE "All My Loving"
    PERFORMER "THE BEATLES"
    INDEX 00 02:01:47
FILE "(03) All My Loving - THE BEATLES .wav" WAVE
    INDEX 01 00:00:00
  TRACK 04 AUDIO
    TITLE "Don't Bother Me"
    PERFORMER "THE BEATLES"
    INDEX 00 02:06:33
FILE "(04) Don't Bother Me - THE BEATLES .wav" WAVE
    INDEX 01 00:00:00
  TRACK 05 AUDIO
    TITLE "Little Child"
    PERFORMER "THE BEATLES"
    INDEX 00 02:27:26
FILE "(05) Little Child - THE BEATLES .wav" WAVE
    INDEX 01 00:00:00
  TRACK 06 AUDIO
    TITLE "Till There Was You"
    PERFORMER "THE BEATLES"
    INDEX 00 01:45:36
FILE "(06) Till There Was You - THE BEATLES .wav" WAVE
    INDEX 01 00:00:00
  TRACK 07 AUDIO
    TITLE "Please Mister Postman"
    PERFORMER "THE BEATLES"
    INDEX 00 02:14:27
FILE "(07) Please Mister Postman - THE BEATLES .wav" WAVE
    INDEX 01 00:00:00
  TRACK 08 AUDIO
    TITLE "Roll Over Beethoven"
    PERFORMER "THE BEATLES"
    INDEX 00 02:34:57
FILE "(08) Roll Over Beethoven - THE BEATLES .wav" WAVE
    INDEX 01 00:00:00
  TRACK 09 AUDIO
    TITLE "Hold Me Tight"
    PERFORMER "THE BEATLES"
    INDEX 00 02:44:01
FILE "(09) Hold Me Tight - THE BEATLES .wav" WAVE
    INDEX 01 00:00:00
  TRACK 10 AUDIO
    TITLE "You Really Got A Hold On Me"
    PERFORMER "THE BEATLES"
    INDEX 00 02:30:38
FILE "(10) You Really Got A Hold On Me - THE BEATLES .wav" WAVE
    INDEX 01 00:00:00
  TRACK 11 AUDIO
    TITLE "I Wanna Be Your Man"
    PERFORMER "THE BEATLES"
    INDEX 00 03:00:65
FILE "(11) I Wanna Be Your Man - THE BEATLES .wav" WAVE
    INDEX 01 00:00:00
  TRACK 12 AUDIO
    TITLE "Devil In Her Heart"
    PERFORMER "THE BEATLES"
    INDEX 00 01:57:18
FILE "(12) Devil In Her Heart - THE BEATLES .wav" WAVE
    INDEX 01 00:00:00
  TRACK 13 AUDIO
    TITLE "Not A Second Time"
    PERFORMER "THE BEATLES"
    INDEX 00 02:25:20
FILE "(13) Not A Second Time - THE BEATLES .wav" WAVE
    INDEX 01 00:00:00
  TRACK 14 AUDIO
    TITLE "Money (That's What I Want)"
    PERFORMER "THE BEATLES"
    INDEX 00 02:05:21
FILE "(14) Money (That's What I Want) - THE BEATLES .wav" WAVE
    INDEX 01 00:00:00





.


With The Beatles Cue  http://thepiratebay.org/torrent/5087564/



.
